<svg xmlns="http://www.w3.org/2000/svg" viewBox="0 0 1155 1155"><g id="Layer_2" data-name="Layer 2"><rect width="1155" height="1155" style="fill:#043d5f"/></g><g id="Layer_1" data-name="Layer 1"><text transform="translate(311.28 613.88)" style="font-size:161.96392822265625px;fill:#e8ebed;font-family:Montserrat-ExtraBold, Montserrat;font-weight:800"><tspan style="letter-spacing:-0.009993906430355247em">f</tspan><tspan x="64.14" y="0">ast</tspan><tspan x="326.84" y="0" style="letter-spacing:0.007992110391213201em">h</tspan><tspan x="440.86" y="0">ost</tspan></text><path d="M533.46,567.9c-18,87.79-95.64,153.84-188.74,153.84-92.17,0-169.22-64.73-188.17-151.21-60.87-12-99.5-30-99.5-50,0-20.59,40.71-39,104.41-51a192.73,192.73,0,0,1,367.34,2.56q-14.44-3.07-30.66-5.67a148.9,148.9,0,1,0,22.71,104.15Q527.31,569.28,533.46,567.9Z" transform="translate(38 37)" style="fill:#f0ad4e"/></g></svg>